<svg xmlns="http://www.w3.org/2000/svg" width="76.683" height="62.626" viewBox="0 0 76.683 62.626"><defs><style>.a{fill:#00bf86;}</style></defs><path class="a" d="M58.724,102.8v6.745L76.683,96.055,58.724,82.57v6.745H51.376A24.717,24.717,0,0,0,36.1,54.293V46.915l-9.986,6.657A24.735,24.735,0,0,0,7.337,89.314H0V102.8Zm4.494-8.988V91.565l5.98,4.491-5.98,4.491V98.3H43.557a24.926,24.926,0,0,0,4.858-4.494ZM9.138,78.079a20.2,20.2,0,0,1,8.941-16.806l4.169,2.78a15.716,15.716,0,0,0-3.883,25.262H12.547A20.035,20.035,0,0,1,9.138,78.079Zm8.988,0a11.313,11.313,0,0,1,8.73-10.954L36.1,73.289V69.094a11.234,11.234,0,1,1-17.977,8.985ZM4.494,98.3V93.808H29.362a15.73,15.73,0,0,0,5.245-30.56l-3-1.063v2.706L24.425,60.1l7.184-4.79v2.582l1.8.365A20.226,20.226,0,0,1,29.362,98.3Z" transform="translate(0 -46.915)"/></svg>