<svg xmlns="http://www.w3.org/2000/svg" width="56.043" height="63.626" viewBox="0 0 56.043 63.626"><defs><style>.a{fill:#2699fb;stroke:#2699fb;}</style></defs><g transform="translate(0.5 0.5)"><path class="a" d="M0,31.313A12.812,12.812,0,0,0,4.191,40.8,11.016,11.016,0,0,0,15.144,55.155c1.545,5.534,6.63,7.471,12.377,7.471S38.357,60.692,39.9,55.155A11.016,11.016,0,0,0,50.851,40.8a12.824,12.824,0,0,0-.063-19.024,9.557,9.557,0,0,0,.585-3.3c0-5.669-5.026-10.352-11.459-10.945C38.393,1.965,33.311,0,27.521,0c-5.768,0-10.874,1.937-12.4,7.525C8.694,8.119,3.669,12.8,3.669,18.47a9.558,9.558,0,0,0,.585,3.3A12.815,12.815,0,0,0,0,31.313ZM36.593,9.567a1.836,1.836,0,0,0,2.067,1.565c5,.056,9.043,3.326,9.043,7.338a5.916,5.916,0,0,1-.12,1.184A12.765,12.765,0,0,0,42.2,18.47a9.12,9.12,0,0,0-5.316,1.7,1.846,1.846,0,0,1-.686-1.052,1.81,1.81,0,0,1,.488-1.719,1.835,1.835,0,0,0-2.594-2.594,5.51,5.51,0,0,0,.282,8.052,9.119,9.119,0,0,0-1.349,4.783,1.835,1.835,0,0,0,3.67,0,5.511,5.511,0,0,1,5.5-5.5,9.174,9.174,0,1,1,0,18.348,1.835,1.835,0,1,0,0,3.67,12.763,12.763,0,0,0,5.408-1.2,7.347,7.347,0,0,1-8.78,8.373A1.835,1.835,0,0,0,36.613,52.9c-.4,3.234-2.288,5.517-7.257,5.975V3.75c4.893.452,6.8,2.675,7.237,5.817ZM7.339,18.47c0-4.047,4.115-7.339,9.174-7.339h.123a1.835,1.835,0,0,0,1.817-1.581c.436-3.119,2.313-5.35,7.234-5.8V58.876c-4.068-.376-6.768-2.005-7.258-5.982A1.835,1.835,0,0,0,16.2,51.33a7.342,7.342,0,0,1-8.766-8.369,12.763,12.763,0,0,0,5.408,1.2,1.835,1.835,0,1,0,0-3.67,9.174,9.174,0,1,1,0-18.348,5.511,5.511,0,0,1,5.5,5.5,1.835,1.835,0,0,0,3.67,0,9.12,9.12,0,0,0-1.556-5.106,5.509,5.509,0,0,0-.058-7.729A1.835,1.835,0,1,0,17.808,17.4a1.81,1.81,0,0,1,.491,1.705,1.89,1.89,0,0,1-.449.854,9.117,9.117,0,0,0-5.007-1.493,12.765,12.765,0,0,0-5.384,1.184,5.916,5.916,0,0,1-.12-1.184Zm0,0" transform="translate(0 0)"/><path class="a" d="M275.5,259.348a1.835,1.835,0,1,0,0-3.669,1.837,1.837,0,0,1-1.835-1.835v-3.669a1.837,1.837,0,0,1,1.835-1.835,5.511,5.511,0,0,0,5.5-5.5,1.835,1.835,0,1,0-3.669,0,1.837,1.837,0,0,1-1.835,1.835,5.511,5.511,0,0,0-5.5,5.5v3.669A5.511,5.511,0,0,0,275.5,259.348Zm0,0" transform="translate(-236.974 -211.521)"/><path class="a" d="M95.5,244.67a1.837,1.837,0,0,1-1.835-1.835,1.835,1.835,0,1,0-3.67,0,5.511,5.511,0,0,0,5.5,5.5,1.837,1.837,0,0,1,1.835,1.835v3.669a1.837,1.837,0,0,1-1.835,1.835,1.835,1.835,0,1,0,0,3.669,5.511,5.511,0,0,0,5.5-5.5v-3.669A5.511,5.511,0,0,0,95.5,244.67Zm0,0" transform="translate(-78.991 -211.521)"/></g></svg>