<svg xmlns="http://www.w3.org/2000/svg" width="223.034" height="223.034" viewBox="0 0 223.034 223.034"><defs><style>.a{fill:#f80;}</style></defs><g transform="translate(0)"><path class="a" d="M13.068,13.068H36.529V0H0V36.529H13.068Z" transform="translate(0 0)"/><path class="a" d="M428.143,0V13.068H451.6V36.529h13.068V0Z" transform="translate(-241.638 0)"/><path class="a" d="M13.068,428.143H0v36.529H36.529V451.6H13.068Z" transform="translate(0 -241.638)"/><path class="a" d="M451.6,451.6H428.143v13.068h36.529V428.143H451.6Z" transform="translate(-241.638 -241.638)"/><path class="a" d="M68.857,141.915h73.058V68.857H68.857Zm13.068-59.99h46.922v46.922H81.925Z" transform="translate(-38.862 -38.862)"/><path class="a" d="M348.487,275.429H275.429v73.058h73.058ZM288.5,288.5h46.922v16.927H305.424v29.995H288.5V288.5Zm29.995,46.922V318.493h16.926v16.926Z" transform="translate(-155.449 -155.449)"/><path class="a" d="M128.847,305.424H111.92V275.429H68.857v73.058h73.058V281.963H128.847Zm0,29.995H81.925V288.5H98.852v29.995h29.995Z" transform="translate(-38.862 -155.449)"/><path class="a" d="M137.714,137.714h13.068v13.068H137.714Z" transform="translate(-77.724 -77.724)"/><path class="a" d="M288.5,81.925h16.927V111.92h29.995v16.927H275.432v13.068h73.054V68.857H275.429v42.97H288.5Zm29.995,0h16.926V98.852H318.492Z" transform="translate(-155.449 -38.862)"/></g></svg>