<svg xmlns="http://www.w3.org/2000/svg" width="9.591" height="10.463" viewBox="0 0 9.591 10.463"><defs><style>.a{fill:#fb0;}</style></defs><path class="a" d="M317.5,17.417A1.417,1.417,0,1,1,316.085,16,1.417,1.417,0,0,1,317.5,17.417Zm0,0" transform="translate(-308.237 -15.673)"/><path class="a" d="M300.412,3.488a1.744,1.744,0,1,1,1.744-1.744A1.746,1.746,0,0,1,300.412,3.488Zm0-2.834a1.09,1.09,0,1,0,1.09,1.09,1.091,1.091,0,0,0-1.09-1.09Zm0,0" transform="translate(-292.564 0)"/><path class="a" d="M317.5,358.749a1.417,1.417,0,1,1-1.417-1.417A1.417,1.417,0,0,1,317.5,358.749Zm0,0" transform="translate(-308.237 -350.03)"/><path class="a" d="M300.412,344.82a1.744,1.744,0,1,1,1.744-1.744A1.746,1.746,0,0,1,300.412,344.82Zm0-2.834a1.09,1.09,0,1,0,1.09,1.09A1.091,1.091,0,0,0,300.412,341.986Zm0,0" transform="translate(-292.564 -334.357)"/><path class="a" d="M18.834,188.085a1.417,1.417,0,1,1-1.417-1.417A1.417,1.417,0,0,1,18.834,188.085Zm0,0" transform="translate(-15.673 -182.853)"/><path class="a" d="M1.744,174.156a1.744,1.744,0,1,1,1.744-1.744A1.746,1.746,0,0,1,1.744,174.156Zm0-2.834a1.09,1.09,0,1,0,1.09,1.09A1.091,1.091,0,0,0,1.744,171.322Zm0,0" transform="translate(0 -167.18)"/><path class="a" d="M114.785,93.393a.436.436,0,0,1-.216-.815l4.045-2.306a.436.436,0,1,1,.432.758L115,93.336A.433.433,0,0,1,114.785,93.393Zm0,0" transform="translate(-112.012 -88.371)"/><path class="a" d="M118.852,269.4a.433.433,0,0,1-.215-.057l-4.045-2.306a.436.436,0,0,1,.432-.758l4.045,2.306a.436.436,0,0,1-.216.815Zm0,0" transform="translate(-112.034 -260.778)"/></svg>