<svg xmlns="http://www.w3.org/2000/svg" width="54.95" height="63.626" viewBox="0 0 54.95 63.626"><defs><style>.a{fill:#007ce6;stroke:#007ce6;}</style></defs><g transform="translate(0.5 0.5)"><path class="a" d="M66.254,0a23.024,23.024,0,0,0-23,22.081L36.267,32.206a5.3,5.3,0,0,0,4.367,8.317h2.6v3.306A11.443,11.443,0,0,0,54.282,55.252v7.374H77.613V47.479L82.441,42.7a21.771,21.771,0,0,0,6.838-15.808V23.024A23.051,23.051,0,0,0,66.254,0ZM68.4,27.8l5.32-3.546L71.68,21.185,68.4,23.369V17.806H64.719v5.563l-3.276-2.184L59.4,24.25l5.32,3.546v5.818a11.052,11.052,0,1,1,3.684,0Zm17.192-.9A18.073,18.073,0,0,1,79.9,40.031l-5.974,5.91v13H68.4v-21.6a14.736,14.736,0,1,0-3.684,0v21.6H57.966V51.575H54.659a7.754,7.754,0,0,1-7.745-7.745v-6.99h-6.28A1.621,1.621,0,0,1,39.3,34.3l7.609-11.033.009-.557a19.34,19.34,0,0,1,38.677.317Z" transform="translate(-35.329 0)"/></g></svg>