<svg xmlns="http://www.w3.org/2000/svg" width="55.743" height="63.577" viewBox="0 0 55.743 63.577"><defs><style>.a{fill:#ff9100;stroke:#ff9100;}</style></defs><g transform="translate(0.5 0.5)"><g transform="translate(0)"><path class="a" d="M86.793,24.77C86.793,18.959,85.281,0,65.838,0,55.113,0,47.421,2.77,42.964,8.234a19.83,19.83,0,0,0-3.919,14.932L32.786,32.4a4.3,4.3,0,0,0,3.554,6.709h3.237c-.346,3.223-.566,10.217,3.782,11.669a17.917,17.917,0,0,0,7.607.434l-3.217,9.647a1.3,1.3,0,0,0,1.237,1.716H77.667a1.3,1.3,0,0,0,1.284-1.545l-.061-.325A33.8,33.8,0,0,1,82.67,38.173C85.407,33.228,86.793,28.719,86.793,24.77Zm-10.675,35.2H50.794L54.13,49.952a1.3,1.3,0,0,0-1.553-1.676c-.055.01-4.9,1.194-8.4.027-2.555-.853-2.334-7.292-1.825-10.277A1.3,1.3,0,0,0,41.068,36.5H36.34a1.7,1.7,0,0,1-1.695-1.688,1.675,1.675,0,0,1,.292-.948L41.5,24.2a1.312,1.312,0,0,0,.2-1A17.451,17.451,0,0,1,44.986,9.882C48.92,5.055,55.93,2.608,65.838,2.608c16.559,0,18.347,15.5,18.347,22.163,0,3.5-1.276,7.587-3.8,12.141A36.524,36.524,0,0,0,76.118,59.969Z" transform="translate(-32.05)"/></g><g transform="translate(22.151 1.304)"><path class="a" d="M236.581,30.667a1.3,1.3,0,0,0,.121,1.84,3.858,3.858,0,0,1,1.353,2.931,3.911,3.911,0,0,1-7.822,0,3.858,3.858,0,0,1,1.353-2.931,1.3,1.3,0,0,0-.859-2.284h-5.709V24.513a1.3,1.3,0,0,0-2.284-.859,3.858,3.858,0,0,1-2.931,1.353,3.911,3.911,0,0,1,0-7.822,3.858,3.858,0,0,1,2.931,1.353,1.3,1.3,0,0,0,2.284-.859V10.667h-2.607v4.466a6.419,6.419,0,0,0-2.607-.555,6.518,6.518,0,1,0,0,13.037,6.418,6.418,0,0,0,2.607-.555v4.466a1.3,1.3,0,0,0,1.3,1.3h4.466a6.419,6.419,0,0,0-.555,2.607,6.518,6.518,0,1,0,13.037,0,6.418,6.418,0,0,0-.555-2.607h4.466V30.222h-7.012A1.3,1.3,0,0,0,236.581,30.667Z" transform="translate(-213.285 -10.667)"/></g><g transform="translate(38.516 5.358)"><g transform="translate(0)"><path class="a" d="M348.349,43.84l-1.166,2.334c1.975.98,7.1,4.336,7.1,7.953h2.607C356.892,48.175,348.7,44.008,348.349,43.84Z" transform="translate(-347.183 -43.84)"/></g></g><g transform="translate(23.454 28.681)"><path class="a" d="M229.166,234.667a5.215,5.215,0,0,0-5.215,5.215h2.607a2.607,2.607,0,0,1,5.215,0h2.607A5.214,5.214,0,0,0,229.166,234.667Z" transform="translate(-223.951 -234.667)"/></g><g transform="translate(14.328 13.037)"><path class="a" d="M167.536,114.489H155.1a5.215,5.215,0,0,0-4.515-7.822v2.607a2.607,2.607,0,1,1,0,5.215,1.3,1.3,0,0,0,0,2.607h15.644v10.429h2.607V115.793A1.3,1.3,0,0,0,167.536,114.489Z" transform="translate(-149.284 -106.667)"/></g><g transform="translate(31.276 36.504)"><rect class="a" width="2.607" height="2.607"/></g><g transform="translate(31.276 41.717)"><rect class="a" width="2.607" height="2.607"/></g><g transform="translate(15.632 24.77)"><rect class="a" width="2.607" height="2.607"/></g><g transform="translate(15.632 29.984)"><rect class="a" width="2.607" height="2.607"/></g><g transform="translate(38.526 47.986)"><g transform="translate(0)"><path class="a" d="M350.419,393.128l-2.555-.51a38.618,38.618,0,0,0,0,13.548l2.555-.511A36.7,36.7,0,0,1,350.419,393.128Z" transform="translate(-347.265 -392.618)"/></g></g><g transform="translate(33.305 51.831)"><path class="a" d="M307.695,424.707l-2.529-.632c-.057.228-1.379,5.632.027,9.854l2.474-.824C306.5,429.61,307.683,424.756,307.695,424.707Z" transform="translate(-304.547 -424.075)"/></g></g></svg>