<svg xmlns="http://www.w3.org/2000/svg" xmlns:xlink="http://www.w3.org/1999/xlink" width="411" height="463" viewBox="0 0 411 463"><defs><style>.a{fill:url(#a);}.b{clip-path:url(#b);}.c{opacity:0.201;}.d,.g{opacity:0.7;}.d{fill:url(#c);}.e,.h,.k{fill:none;}.e{stroke:#a3a0fb;}.e,.f,.h,.i{stroke-width:2px;}.f,.i{fill:#fff;}.f{stroke:#a4a1fb;}.g{fill:url(#e);}.h{stroke:#54d8ff;}.i{stroke:#55d8fe;}.j{stroke:none;}</style><linearGradient id="a" y1="1" x2="1" gradientUnits="objectBoundingBox"><stop offset="0" stop-color="#5c6ccd"/><stop offset="1" stop-color="#5753b5"/></linearGradient><clipPath id="b"><rect class="a" width="411" height="463" transform="translate(0 0.194)"/></clipPath><linearGradient id="c" x1="0.5" x2="0.5" y2="1" gradientUnits="objectBoundingBox"><stop offset="0" stop-color="#a7a7ff"/><stop offset="1" stop-color="#fff" stop-opacity="0"/></linearGradient><linearGradient id="e" x1="0.5" x2="0.5" y2="1" gradientUnits="objectBoundingBox"><stop offset="0" stop-color="#54d8ff"/><stop offset="1" stop-color="#fff" stop-opacity="0"/></linearGradient></defs><g transform="translate(0.012 -0.194)"><g class="b" transform="translate(-0.012)"><g class="c" transform="translate(-281.978 137.009)"><path class="d" d="M330,524.824v-105.2s158.677,69,285.461,73.337c137.093-4.2,160.832-33.731,267.618-73.337,91.253-33.012,182.256-42.072,269.6-39.74s163.054,37.994,266.231,41.648c182.016-14.724,274.881-89.164,287.178-120.254V563.949L330,564.066Z" transform="translate(-330 -300.05)"/><path class="e" d="M313,365.088s157.653,70.648,282.3,72.169S767.835,400.8,863.31,365.182s186.239-41.7,269.8-40.5,164.8,38.522,267.469,40.5,268.776-64.519,287.247-119.946" transform="translate(-311.737 -245.24)"/><g class="f" transform="translate(545.524 114.522)"><circle class="j" cx="5.911" cy="5.911" r="5.911"/><circle class="k" cx="5.911" cy="5.911" r="4.911"/></g><g class="f" transform="translate(363.194 179.968)"><circle class="j" cx="5.911" cy="5.911" r="5.911"/><circle class="k" cx="5.911" cy="5.911" r="4.911"/></g></g><g class="c" transform="translate(-347.3 249.361)"><path class="d" d="M330,524.824v-105.2s158.677,69,285.461,73.337c137.093-4.2,160.832-33.731,267.618-73.337,91.253-33.012,182.256-42.072,269.6-39.74s163.054,37.994,266.231,41.648c182.016-14.724,274.881-89.164,287.178-120.254V563.949L330,564.066Z" transform="translate(-330 -300.05)"/><path class="e" d="M313,365.088s157.653,70.648,282.3,72.169S767.835,400.8,863.31,365.182s186.239-41.7,269.8-40.5,164.8,38.522,267.469,40.5,268.776-64.519,287.247-119.946" transform="translate(-311.737 -245.24)"/><g class="f" transform="translate(545.524 114.522)"><circle class="j" cx="5.911" cy="5.911" r="5.911"/><circle class="k" cx="5.911" cy="5.911" r="4.911"/></g></g><g class="c" transform="translate(-362.24 147.762)"><path class="g" d="M330,354.422S484.873,514.138,612.093,520.149C754.041,518.8,755.2,437.234,879.939,392.584c104.424-35.059,184.105,60.575,271.452,62.907s147.629-65.543,266.8-70.259c154.4,7.1,278.287,97.786,287.9,102.662v66.3L330,554.31Z" transform="translate(-329.147 -354.422)"/><path class="h" d="M312.953,279.164s159.693,162.659,284.5,164.181,167.485-95.839,267.7-128.662,187.142,62.609,270.808,63.806,163.77-71.7,266.57-69.715,220.333,57.121,285.31,100.617" transform="translate(-312.953 -277.803)"/><g class="i" transform="translate(1080.278 24.838)"><circle class="j" cx="5.911" cy="5.911" r="5.911"/><circle class="k" cx="5.911" cy="5.911" r="4.911"/></g></g><g class="c" transform="translate(-517.944 200.967)"><path class="g" d="M330,515.068V354.422S484.873,514.138,612.093,520.149C754.041,518.8,755.2,437.234,879.939,392.584c104.424-35.059,184.105,60.575,271.452,62.907s147.629-65.543,266.8-70.259c154.4,7.1,278.287,97.786,287.9,102.662v66.3L330,554.31Z" transform="translate(-329.661 -354.422)"/><path class="h" d="M312.953,279.164s159.693,162.659,284.5,164.181,167.485-95.839,267.7-128.662,187.142,62.609,270.808,63.806,163.77-71.7,266.57-69.715,220.333,57.121,285.31,100.617" transform="translate(-312.953 -277.803)"/><g class="i" transform="translate(867.705 87.918)"><circle class="j" cx="5.911" cy="5.911" r="5.911"/><circle class="k" cx="5.911" cy="5.911" r="4.911"/></g></g></g></g></svg>