<svg xmlns="http://www.w3.org/2000/svg" width="29.764" height="22.323" viewBox="0 0 29.764 22.323"><defs><style>.a{fill:#eceff1;}.b{fill:#cfd8dc;}.c{fill:#f44336;}</style></defs><g transform="translate(0 -64)"><rect class="a" width="22" height="22" transform="translate(4.098 64)"/><path class="b" d="M256,157.259l11.162,8.814v-17.4Z" transform="translate(-241.118 -79.75)"/><path class="c" d="M26.974,64h-.93L14.882,72.814,3.721,64H2.79A2.791,2.791,0,0,0,0,66.79V83.533a2.791,2.791,0,0,0,2.79,2.79h.93v-17.4l11.162,8.585L26.044,68.92v17.4h.93a2.791,2.791,0,0,0,2.79-2.79V66.79A2.791,2.791,0,0,0,26.974,64Z"/></g></svg>