<svg xmlns="http://www.w3.org/2000/svg" width="22.323" height="22.323" viewBox="0 0 22.323 22.323"><defs><style>.a{fill:#fbbd00;}.b{fill:#0f9d58;}.c{fill:#31aa52;}.d{fill:#3c79e6;}.e{fill:#cf2d48;}.f{fill:#eb4132;}</style></defs><g transform="translate(0)"><path class="a" d="M5.232,107.007a5.893,5.893,0,0,1,.834-3.029v-3.763H2.3a11.167,11.167,0,0,0,0,13.584H6.066v-3.763A5.893,5.893,0,0,1,5.232,107.007Z" transform="translate(0 -95.846)"/><path class="b" d="M198.616,373.791,196,376.407l2.616,2.616a11.077,11.077,0,0,0,6.792-2.3v-3.759h-3.759A5.929,5.929,0,0,1,198.616,373.791Z" transform="translate(-187.454 -356.7)"/><path class="c" d="M56.586,325.477l-3.763,3.763a11.335,11.335,0,0,0,.966,1.1,11.088,11.088,0,0,0,7.892,3.269v-5.232A5.932,5.932,0,0,1,56.586,325.477Z" transform="translate(-50.52 -311.286)"/><path class="d" d="M267.162,199.882a11.261,11.261,0,0,0-.183-2.022l-.1-.536H256v5.232h5.3a5.9,5.9,0,0,1-2.262,2.426l3.759,3.759a11.332,11.332,0,0,0,1.1-.966A11.089,11.089,0,0,0,267.162,199.882Z" transform="translate(-244.838 -188.721)"/><path class="e" d="M202.809,6.969l.462.462,3.7-3.7-.462-.462A11.089,11.089,0,0,0,198.616,0L196,2.616l2.616,2.616A5.891,5.891,0,0,1,202.809,6.969Z" transform="translate(-187.454)"/><path class="f" d="M61.681,5.232V0a11.089,11.089,0,0,0-7.892,3.269,11.33,11.33,0,0,0-.966,1.1l3.763,3.763a5.932,5.932,0,0,1,5.1-2.9Z" transform="translate(-50.519 0)"/></g></svg>