<svg xmlns="http://www.w3.org/2000/svg" width="30.278" height="30.278" viewBox="0 0 30.278 30.278"><defs><style>.a{fill:#ff5a31;}</style></defs><path class="a" d="M2.1,47.77a.506.506,0,0,0-.07.455l1.009,3.028a.5.5,0,0,0,.479.345h27.25a.5.5,0,0,0,.5-.433L32.273,44.1a.5.5,0,0,0-.5-.576H30.26v-.5a2.019,2.019,0,1,0-4.037,0v.5H24.709a.5.5,0,0,0-.5.576l.927,6.489H11.279l.788-2.364a.5.5,0,0,0-.478-.664h-.309l.788-2.364a.5.5,0,0,0-.479-.664H2.5a.505.505,0,0,0-.479.665l.788,2.363H2.5a.5.5,0,0,0-.409.21Zm8.12,2.818H3.878L3.205,48.57H6.542v1.009H7.551V48.57h3.337Zm17.017-7.57a1.009,1.009,0,1,1,2.019,0v.5H27.232Zm3.96,1.514-.865,6.056H26.155l-.865-6.056ZM3.2,45.542H6.542v1.009H7.551V45.542h3.337l-.673,2.019H3.878Z" transform="translate(-2 -21.319)"/><path class="a" d="M14.474,21.031l1.738-.7,1.355,4.518a.5.5,0,0,0,.84.212l2.527-2.527,1.154,1.813v3.385H23.1V24.351l1.154-1.813,2.527,2.527a.5.5,0,0,0,.357.148.515.515,0,0,0,.124-.015.5.5,0,0,0,.36-.345l1.355-4.518,1.738.7.1.718,1-.137L31.671,20.6a.5.5,0,0,0-.312-.4l-2.523-1.009-2.39-.956-.594-.807a7.323,7.323,0,0,0,3.3-6.128V8.56A6.732,6.732,0,0,0,22.593,2a6.732,6.732,0,0,0-6.56,6.56V11.3a7.322,7.322,0,0,0,3.3,6.128l-.594.807-2.39.956L13.827,20.2a.5.5,0,0,0-.312.4l-.5,3.7,1,.137Zm12.42,2.724-2.088-2.088,1.52-2.389,1.706.683ZM17.042,11.3v-1a2,2,0,0,0,1.009.281H23.81a7.65,7.65,0,0,1-3.484,1.485l-3.157.481a6.326,6.326,0,0,1-.127-1.242ZM18.051,9.57a1.009,1.009,0,0,1-.935-.634l1.537-.384a16.3,16.3,0,0,1,7.88,0l1.537.384a1.008,1.008,0,0,1-.935.634Zm9.083,1.009a2,2,0,0,0,1.009-.281v1a6.3,6.3,0,0,1-.057.808l-1.673-1.533Zm-4.542-7.57A5.794,5.794,0,0,1,28.1,7.9l-1.318-.33a17.319,17.319,0,0,0-8.37,0L17.09,7.9A5.794,5.794,0,0,1,22.593,3.009ZM17.447,13.524l2.45-.373a.8.8,0,0,0-.332.709c0,.418.226.757.5.757s.5-.339.5-.757a.719.719,0,0,0-.432-.746l.336-.051a8.67,8.67,0,0,0,4.655-2.288l2.7,2.474a6.311,6.311,0,0,1-4.481,4.189,3.148,3.148,0,0,1-1.521,0A6.311,6.311,0,0,1,17.447,13.524Zm4.14,4.893a4.169,4.169,0,0,0,2.011,0,7.368,7.368,0,0,0,1.364-.493l.552.75-2.921,4.59-2.921-4.59.552-.75A7.351,7.351,0,0,0,21.587,18.417Zm-2.728.859,1.52,2.389-2.088,2.088L17.154,19.96Z" transform="translate(-7.454 -2)"/><path class="a" d="M51.514,52.523h1.009a1.516,1.516,0,0,0,1.514-1.514v-.5a.5.5,0,0,0-.5-.5H50.5a.5.5,0,0,0-.5.5v.5A1.516,1.516,0,0,0,51.514,52.523Zm1.514-1.514a.505.505,0,0,1-.5.5H51.514a.505.505,0,0,1-.5-.5Z" transform="translate(-25.778 -25.777)"/><circle class="a" cx="0.606" cy="0.606" r="0.606" transform="translate(16.765 11.088)"/></svg>