<svg xmlns="http://www.w3.org/2000/svg" width="21.922" height="22.651" viewBox="0 0 21.922 22.651"><defs><style>.a{fill:#fff;}.b{fill:#2196f3;}</style></defs><g transform="translate(-7.984)"><path class="a" d="M26.983,0H10.907A2.926,2.926,0,0,0,7.984,2.923V16.076A2.926,2.926,0,0,0,10.907,19v2.921a.732.732,0,0,0,.421.662.741.741,0,0,0,.31.069.723.723,0,0,0,.468-.17L16.287,19h10.7a2.926,2.926,0,0,0,2.923-2.923V2.923A2.926,2.926,0,0,0,26.983,0Z"/><g transform="translate(10.907 5.845)"><path class="b" d="M74.176,135.307H72.715a.731.731,0,0,1,0-1.461h1.461a.731.731,0,1,0,0-1.461,2.192,2.192,0,0,1,0-4.384h1.461a.731.731,0,0,1,0,1.461H74.176a.731.731,0,1,0,0,1.461,2.192,2.192,0,1,1,0,4.384Z" transform="translate(-71.984 -127.999)"/><path class="b" d="M330.176,135.307h-1.461a.731.731,0,1,1,0-1.461h1.461a.731.731,0,0,0,0-1.461,2.192,2.192,0,1,1,0-4.384h1.461a.731.731,0,0,1,0,1.461h-1.461a.731.731,0,1,0,0,1.461,2.192,2.192,0,0,1,0,4.384Z" transform="translate(-316.292 -127.999)"/><path class="b" d="M203.638,135.288a.731.731,0,0,1-.731-.731v-2.75l-.077.155a.761.761,0,0,1-1.308,0l-.076-.155v2.75a.731.731,0,0,1-1.461,0v-5.846a.731.731,0,0,1,1.384-.327l.808,1.616.808-1.615a.73.73,0,0,1,1.384.326v5.846A.731.731,0,0,1,203.638,135.288Z" transform="translate(-194.138 -127.979)"/></g></g></svg>