<svg xmlns="http://www.w3.org/2000/svg" width="24.948" height="30.278" viewBox="0 0 24.948 30.278"><defs><style>.a{fill:#ff5a31;}</style></defs><g transform="translate(17.58 1.219)"><path class="a" d="M346.067,20.608a3.651,3.651,0,0,0-.872.109l.226.918a2.685,2.685,0,0,1,3.349,2.621c0,3.979-4.531,6.912-6.42,7.464l.266.908c2.4-.7,7.1-3.978,7.1-8.372A3.653,3.653,0,0,0,346.067,20.608Z" transform="translate(-342.348 -20.608)"/></g><g transform="translate(0 1.219)"><path class="a" d="M46.014,24.257a2.684,2.684,0,0,1,3.349-2.62l.227-.919a3.647,3.647,0,0,0-4.521,3.539c0,4.4,4.7,7.671,7.1,8.372l.265-.908C50.545,31.169,46.014,28.236,46.014,24.257Z" transform="translate(-45.068 -20.609)"/></g><g transform="translate(10.36 17.611)"><path class="a" d="M224.006,297.8h-3.281a.473.473,0,0,0-.473.473v1.8a.472.472,0,0,0,.573.462,7.6,7.6,0,0,1,3.082,0,.473.473,0,0,0,.573-.462v-1.8A.473.473,0,0,0,224.006,297.8Zm-.473,1.7a8.694,8.694,0,0,0-2.335,0v-.759h2.335Z" transform="translate(-220.252 -297.8)"/></g><g transform="translate(5.615 27.584)"><path class="a" d="M153.264,466.448H140.493a.473.473,0,0,0-.473.473v1.748a.473.473,0,0,0,.473.473h12.771a.473.473,0,0,0,.473-.473v-1.748A.473.473,0,0,0,153.264,466.448Zm-.473,1.748H140.966v-.8h11.825Z" transform="translate(-140.02 -466.448)"/></g><g transform="translate(6.434 20.919)"><path class="a" d="M165.474,353.736H154.341a.473.473,0,0,0-.473.473v6.665a.473.473,0,0,0,.473.473h11.133a.473.473,0,0,0,.473-.473v-6.665A.473.473,0,0,0,165.474,353.736ZM165,360.4H154.814v-5.719H165Z" transform="translate(-153.868 -353.736)"/></g><g transform="translate(8.327 22.811)"><path class="a" d="M193.69,385.728h-7.349a.473.473,0,0,0-.473.473v2.881a.473.473,0,0,0,.473.473h7.349a.473.473,0,0,0,.473-.473V386.2A.473.473,0,0,0,193.69,385.728Zm-.473,2.881h-6.4v-1.935h6.4Z" transform="translate(-185.868 -385.728)"/></g><g transform="translate(3.904)"><path class="a" d="M127.991.238A.793.793,0,0,0,127.424,0h-15.54a.8.8,0,0,0-.8.806c0,.322.016.639.031,1,.012.291.028.58.048.867a25.341,25.341,0,0,0,2.258,9.259c.183.376.38.744.586,1.093a9.075,9.075,0,0,0,3.228,3.433.472.472,0,0,0,.4.027c.11,0,.234,0,.373,0h3.663a.476.476,0,0,0,.4-.03,9.075,9.075,0,0,0,3.228-3.433c.2-.349.4-.716.585-1.092a25.33,25.33,0,0,0,2.259-9.259c.019-.287.035-.575.047-.869.014-.331.027-.662.03-1A.791.791,0,0,0,127.991.238Zm-.745,1.53c-.012.283-.027.563-.046.843a24.373,24.373,0,0,1-2.165,8.908c-.172.354-.357.7-.549,1.027a8.5,8.5,0,0,1-2.721,3h-4.221a8.5,8.5,0,0,1-2.721-3c-.193-.328-.378-.673-.55-1.026a24.393,24.393,0,0,1-2.165-8.908c-.018-.279-.035-.559-.048-.885-.01-.259-.021-.518-.026-.779h15.24C127.269,1.222,127.257,1.495,127.246,1.767Z" transform="translate(-111.084 0)"/></g><g transform="translate(13.979 2.049)"><path class="a" d="M285.623,34.64c-.008.149-.016.289-.026.427a21.618,21.618,0,0,1-1.879,7.78c-.142.291-.3.58-.458.856a6.952,6.952,0,0,1-1.816,2.137l.549.771a7.892,7.892,0,0,0,2.083-2.428c.175-.3.342-.609.494-.923a22.6,22.6,0,0,0,1.972-8.131c.01-.144.018-.288.027-.44Z" transform="translate(-281.444 -34.64)"/></g><g transform="translate(9.936 15.543)"><path class="a" d="M217.27,262.824h-3.3c-.8,0-.875,1.544-.875,1.559s.093,1.456.9,1.456h3.3c.783,0,.875-1.441.875-1.456S218.088,262.824,217.27,262.824Zm-.173,2.069h-2.936a2.066,2.066,0,0,1-.123-.509,2.628,2.628,0,0,1,.138-.614h2.908a2.612,2.612,0,0,1,.138.613A2.037,2.037,0,0,1,217.1,264.893Z" transform="translate(-213.092 -262.824)"/></g><g transform="translate(8.23 19.238)"><path class="a" d="M190.22,325.491a8.56,8.56,0,0,0-3.481,0c-1.567.339-2.5,1.078-2.5,1.975a.473.473,0,0,0,.473.473h7.541a.473.473,0,0,0,.473-.473C192.723,326.568,191.788,325.83,190.22,325.491Zm-4.7,1.5a3.738,3.738,0,0,1,1.423-.577,7.6,7.6,0,0,1,3.081,0,3.738,3.738,0,0,1,1.423.577Z" transform="translate(-184.236 -325.312)"/></g></svg>