<svg xmlns="http://www.w3.org/2000/svg" width="96.095" height="63.018" viewBox="0 0 96.095 63.018"><defs><style>.a{fill:#bf00ac;stroke:#bf00ac;}</style></defs><g transform="translate(0.5 0.5)"><g transform="translate(33.076 0)"><path class="a" d="M185.137,85.333A14.471,14.471,0,1,0,199.608,99.8,14.487,14.487,0,0,0,185.137,85.333Zm0,24.807A10.336,10.336,0,1,1,195.473,99.8,10.351,10.351,0,0,1,185.137,110.14Z" transform="translate(-170.666 -85.333)"/></g><g transform="translate(66.153 16.538)"><g transform="translate(0 0)"><path class="a" d="M351.67,170.667A10.336,10.336,0,1,0,362.007,181,10.351,10.351,0,0,0,351.67,170.667Zm0,16.538a6.2,6.2,0,1,1,6.2-6.2A6.209,6.209,0,0,1,351.67,187.205Z" transform="translate(-341.334 -170.667)"/></g></g><g transform="translate(8.563 16.538)"><g transform="translate(0 0)"><path class="a" d="M54.518,170.667A10.336,10.336,0,1,0,64.855,181,10.348,10.348,0,0,0,54.518,170.667Zm0,16.538a6.2,6.2,0,1,1,6.2-6.2A6.209,6.209,0,0,1,54.518,187.205Z" transform="translate(-44.182 -170.667)"/></g></g><g transform="translate(20.673 33.076)"><g transform="translate(0 0)"><path class="a" d="M133.541,256a26.906,26.906,0,0,0-26.875,26.875,2.067,2.067,0,1,0,4.135,0,22.74,22.74,0,0,1,45.48,0,2.067,2.067,0,1,0,4.135,0A26.906,26.906,0,0,0,133.541,256Z" transform="translate(-106.666 -256)"/></g></g><g transform="translate(65.858 41.346)"><g transform="translate(0 0)"><path class="a" d="M350.444,298.667a18.607,18.607,0,0,0-9.638,2.688,2.068,2.068,0,1,0,2.146,3.535,14.474,14.474,0,0,1,21.963,12.383,2.067,2.067,0,0,0,4.135,0A18.629,18.629,0,0,0,350.444,298.667Z" transform="translate(-339.813 -298.667)"/></g></g><g transform="translate(0 41.346)"><g transform="translate(0 0)"><path class="a" d="M28.239,301.35A18.612,18.612,0,0,0,0,317.272a2.067,2.067,0,0,0,4.135,0,14.476,14.476,0,0,1,21.958-12.387,2.068,2.068,0,1,0,2.146-3.535Z" transform="translate(0 -298.667)"/></g></g></g></svg>