<svg xmlns="http://www.w3.org/2000/svg" width="23.301" height="23.323" viewBox="0 0 23.301 23.323"><defs><style>.a{fill:#fff;}</style></defs><g transform="translate(0)"><path class="a" d="M19.858,3.387a11.657,11.657,0,0,0-16.428,0A11.442,11.442,0,0,0,0,11.554v.006a11.5,11.5,0,0,0,1.419,5.459L.032,23.323,6.41,21.872a11.674,11.674,0,0,0,5.236,1.244h0a11.619,11.619,0,0,0,8.22-3.384,11.435,11.435,0,0,0-.012-16.345ZM11.65,21.3h0a9.839,9.839,0,0,1-4.677-1.185l-.3-.164-4.241.965.921-4.187-.178-.306a9.73,9.73,0,0,1-1.35-4.861A9.827,9.827,0,0,1,18.573,4.676a9.677,9.677,0,0,1,2.907,6.885A9.8,9.8,0,0,1,11.65,21.3Zm0,0" transform="translate(0)"/><path class="a" d="M141.021,141.863h-.511a.98.98,0,0,0-.711.332,2.974,2.974,0,0,0-.933,2.215,5.158,5.158,0,0,0,1.088,2.747,10.924,10.924,0,0,0,4.552,4.009c2.251.885,2.709.709,3.2.664a2.691,2.691,0,0,0,1.8-1.262,2.214,2.214,0,0,0,.156-1.263c-.067-.111-.245-.177-.511-.31s-1.573-.786-1.817-.875-.422-.133-.6.133-.7.88-.857,1.057-.311.2-.577.067a7.368,7.368,0,0,1-2.134-1.323,8.166,8.166,0,0,1-1.5-1.868c-.155-.266-.017-.409.117-.542s.281-.282.415-.436a1.8,1.8,0,0,0,.26-.443.488.488,0,0,0-.022-.465c-.067-.133-.578-1.446-.815-1.972h0c-.2-.442-.41-.457-.6-.465Zm0,0" transform="translate(-132.541 -135.401)"/></g></svg>