<svg xmlns="http://www.w3.org/2000/svg" width="10.609" height="10.849" viewBox="0 0 10.609 10.849"><defs><style>.a{fill:#f5b224;}</style></defs><g transform="translate(-5.411)"><g transform="translate(5.411)"><path class="a" d="M118.387,258.488a.246.246,0,0,0-.246-.246h-.859a.246.246,0,0,0-.246.246v.859a.246.246,0,0,0,.246.246h.859a.246.246,0,0,0,.246-.246v-.859Z" transform="translate(-114.554 -252.503)"/><path class="a" d="M215.022,258.488a.246.246,0,0,0-.246-.246h-.859a.246.246,0,0,0-.246.246v.859a.246.246,0,0,0,.246.246h.859a.246.246,0,0,0,.246-.246Z" transform="translate(-209.041 -252.503)"/><path class="a" d="M311.65,258.488a.246.246,0,0,0-.246-.246h-.859a.246.246,0,0,0-.246.246v.859a.246.246,0,0,0,.246.246h.859a.246.246,0,0,0,.246-.246Z" transform="translate(-303.522 -252.503)"/><path class="a" d="M118.387,355.121a.246.246,0,0,0-.246-.246h-.859a.246.246,0,0,0-.246.246v.859a.246.246,0,0,0,.246.246h.859a.246.246,0,0,0,.246-.246v-.859Z" transform="translate(-114.554 -346.988)"/><path class="a" d="M215.022,355.121a.246.246,0,0,0-.246-.246h-.859a.246.246,0,0,0-.246.246v.859a.246.246,0,0,0,.246.246h.859a.246.246,0,0,0,.246-.246Z" transform="translate(-209.041 -346.988)"/><path class="a" d="M311.65,355.121a.246.246,0,0,0-.246-.246h-.859a.246.246,0,0,0-.246.246v.859a.246.246,0,0,0,.246.246h.859a.246.246,0,0,0,.246-.246v-.859Z" transform="translate(-303.522 -346.988)"/><path class="a" d="M15.075,54.147v1.312A1.072,1.072,0,0,1,14,56.53h-.678a1.077,1.077,0,0,1-1.081-1.071V54.142H9.188v1.317A1.077,1.077,0,0,1,8.107,56.53H7.43a1.072,1.072,0,0,1-1.074-1.071V54.147a.977.977,0,0,0-.944.972V62.81a.977.977,0,0,0,.972.978h8.664a.978.978,0,0,0,.972-.978V55.118A.977.977,0,0,0,15.075,54.147Zm-.315,8.184a.42.42,0,0,1-.42.42H7.072a.42.42,0,0,1-.42-.42V58.358a.42.42,0,0,1,.42-.421H14.34a.42.42,0,0,1,.42.421v3.973Z" transform="translate(-5.411 -52.939)"/><path class="a" d="M79.918,2.888h.67a.368.368,0,0,0,.368-.368V.368A.368.368,0,0,0,80.589,0h-.67a.368.368,0,0,0-.368.368V2.52A.368.368,0,0,0,79.918,2.888Z" transform="translate(-77.902)"/><path class="a" d="M344.826,2.888h.67a.368.368,0,0,0,.368-.368V.368A.368.368,0,0,0,345.5,0h-.67a.368.368,0,0,0-.368.368V2.52A.368.368,0,0,0,344.826,2.888Z" transform="translate(-336.923)"/></g></g></svg>