<svg xmlns="http://www.w3.org/2000/svg" width="37.751" height="29.853" viewBox="0 0 37.751 29.853"><defs><style>.a{fill:#f5b224;}</style></defs><g transform="translate(0 -42.679)"><g transform="translate(0 46.624)"><g transform="translate(0 0)"><path class="a" d="M30.719,88.705H17.1l-2.709-3.22a.463.463,0,0,0-.37-.167H3.031A3.053,3.053,0,0,0,0,88.372v19.8a3.053,3.053,0,0,0,3.05,3.05H30.719a3.053,3.053,0,0,0,3.05-3.05V91.755A3.053,3.053,0,0,0,30.719,88.705Z" transform="translate(0 -85.319)"/></g></g><g transform="translate(4.016 42.679)"><path class="a" d="M74.1,46.065H60.481l-2.709-3.22a.463.463,0,0,0-.37-.167H46.416A3.05,3.05,0,0,0,43.4,45.314H53.419a1.773,1.773,0,0,1,1.362.633l2.313,2.75H70.1a4.367,4.367,0,0,1,4.36,4.36v15.5a3.05,3.05,0,0,0,2.672-3.024V49.111A3.053,3.053,0,0,0,74.1,46.065Z" transform="translate(-43.4 -42.679)"/></g></g></svg>