<svg xmlns="http://www.w3.org/2000/svg" width="15.583" height="17" viewBox="0 0 15.583 17"><defs><style>.a{fill:#FF5A31;}</style></defs><g transform="translate(0 0)"><path class="a" d="M319.272,18.3a2.3,2.3,0,1,1-2.3-2.3A2.3,2.3,0,0,1,319.272,18.3Zm0,0" transform="translate(-304.22 -15.469)"/><path class="a" d="M301.5,5.667a2.833,2.833,0,1,1,2.833-2.833A2.836,2.836,0,0,1,301.5,5.667Zm0-4.6a1.771,1.771,0,1,0,1.771,1.771A1.773,1.773,0,0,0,301.5,1.063Zm0,0" transform="translate(-288.751)"/><path class="a" d="M319.272,359.634a2.3,2.3,0,1,1-2.3-2.3A2.3,2.3,0,0,1,319.272,359.634Zm0,0" transform="translate(-304.22 -345.468)"/><path class="a" d="M301.5,347a2.833,2.833,0,1,1,2.833-2.833A2.836,2.836,0,0,1,301.5,347Zm0-4.6a1.771,1.771,0,1,0,1.771,1.771A1.773,1.773,0,0,0,301.5,342.395Zm0,0" transform="translate(-288.751 -329.999)"/><path class="a" d="M20.6,188.97a2.3,2.3,0,1,1-2.3-2.3A2.3,2.3,0,0,1,20.6,188.97Zm0,0" transform="translate(-15.469 -180.47)"/><path class="a" d="M2.833,176.335A2.833,2.833,0,1,1,5.667,173.5,2.836,2.836,0,0,1,2.833,176.335Zm0-4.6A1.771,1.771,0,1,0,4.6,173.5,1.773,1.773,0,0,0,2.833,171.73Zm0,0" transform="translate(0 -165.001)"/><path class="a" d="M115.057,95.379a.708.708,0,0,1-.351-1.324l6.572-3.747a.708.708,0,1,1,.7,1.231l-6.573,3.747a.7.7,0,0,1-.35.093Zm0,0" transform="translate(-110.552 -87.219)"/><path class="a" d="M121.651,271.383a.7.7,0,0,1-.35-.093l-6.573-3.747a.708.708,0,0,1,.7-1.231L122,270.059a.708.708,0,0,1-.351,1.324Zm0,0" transform="translate(-110.574 -257.379)"/></g></svg>