<svg xmlns="http://www.w3.org/2000/svg" width="26.35" height="23.337" viewBox="0 0 26.35 23.337"><defs><style>.a{fill:#fff;}</style></defs><path class="a" d="M21.043,74.691l-2.51-2.507a2.969,2.969,0,0,0-4.173-.224l-.854.853a1.074,1.074,0,0,1-1.461-.185L9.694,70.279a1.056,1.056,0,0,1-.185-1.457l.854-.854a2.959,2.959,0,0,0-.224-4.171l-2.51-2.507a2.969,2.969,0,0,0-4.173-.224L1.583,62.938a5.215,5.215,0,0,0-.7,6.645C2.051,71.4,9.041,78.4,12.595,80.9c2.209,1.554,5.054,1.578,6.8-.165l1.873-1.871A2.959,2.959,0,0,0,21.043,74.691Z" transform="translate(0 -58.715)"/><path class="a" d="M278,32.221a.772.772,0,0,0,.906-.61.975.975,0,0,1,1.933.15l-.021.168a3.819,3.819,0,0,1-.6,1.188c-2.439,3.5-2.761,3.469-2.565,4.1a.8.8,0,0,0,.521.529,36,36,0,0,0,3.745.067.772.772,0,1,0-.012-1.544c-.7.006-1.446.008-2.058.006.38-.511.913-1.241,1.636-2.28a4.485,4.485,0,0,0,.9-2.2,2.52,2.52,0,0,0-4.993-.489A.772.772,0,0,0,278,32.221Z" transform="translate(-263.097 -29.275)"/><path class="a" d="M401.572,34.424h-.12c.01-1.685.015-3.5-.006-3.745a1.178,1.178,0,0,0-2.16-.665c-.4.488-2.24,3.8-2.795,4.809a.772.772,0,0,0,.676,1.145h2.73c0,.457-.007.894-.01,1.289a.772.772,0,0,0,1.544.013c0-.243.006-.716.01-1.3h.13a.772.772,0,1,0,0-1.544Zm-1.664,0h-1.428c.534-.955,1.056-1.871,1.437-2.521C399.917,32.576,399.913,33.483,399.908,34.424Z" transform="translate(-375.994 -29.475)"/></svg>