<svg xmlns="http://www.w3.org/2000/svg" width="15.132" height="15.132" viewBox="0 0 15.132 15.132"><defs><style>.a{fill:silver;}</style></defs><path class="a" d="M258.217,256A2.219,2.219,0,0,0,256,258.217v.443h4.433v-.443A2.219,2.219,0,0,0,258.217,256Z" transform="translate(-248.434 -248.434)"/><path class="a" d="M151,131.585h10.669V120H151Zm8.423-1.359h-6.206v-.887h6.206Zm-7.093-3.547h.887v-.443a3.1,3.1,0,0,1,2.66-3.058v-.931h.887v.931a3.1,3.1,0,0,1,2.66,3.058v.443h.887v.887h-7.98Z" transform="translate(-146.537 -116.453)"/><path class="a" d="M3.576,2.66,8.9,0H0V11.556H3.576Z"/><path class="a" d="M191.534,33.6,188.2,35.267h3.334Z" transform="translate(-182.638 -32.607)"/></svg>