<svg xmlns="http://www.w3.org/2000/svg" width="34.18" height="29.908" viewBox="0 0 34.18 29.908"><defs><style>.a{fill:#f5b224;}</style></defs><g transform="translate(0 -30.522)"><path class="a" d="M190.456,199.685a4.273,4.273,0,1,1-6.042,0,4.273,4.273,0,0,1,6.042,0" transform="translate(-170.345 -156.162)"/><path class="a" d="M29.907,34.795H26.955l-2.137-4.273H9.36L7.225,34.8,4.277,34.8A4.28,4.28,0,0,0,.011,39.072L0,56.156A4.278,4.278,0,0,0,4.273,60.43H29.907a4.277,4.277,0,0,0,4.273-4.273V39.067A4.277,4.277,0,0,0,29.907,34.795ZM17.089,55.089a8.545,8.545,0,1,1,8.545-8.545A8.555,8.555,0,0,1,17.089,55.089Z"/></g></svg>