<svg xmlns="http://www.w3.org/2000/svg" width="17" height="17" viewBox="0 0 17 17"><defs><style>.a{fill:#f5b224;}</style></defs><path class="a" d="M8.5,0A8.5,8.5,0,1,0,17,8.5,8.509,8.509,0,0,0,8.5,0Zm0,15.683A7.183,7.183,0,1,1,15.683,8.5,7.192,7.192,0,0,1,8.5,15.683Z"/><g transform="translate(4.55 4.49)"><path class="a" d="M144.264,138.53h-2.634V135.9a.658.658,0,1,0-1.317,0v2.634H137.68a.658.658,0,0,0,0,1.317h2.634v2.634a.658.658,0,1,0,1.317,0v-2.634h2.634a.658.658,0,0,0,0-1.317Z" transform="translate(-137.022 -135.238)"/></g></svg>