<svg xmlns="http://www.w3.org/2000/svg" width="15.925" height="15.925" viewBox="0 0 15.925 15.925"><defs><style>.a{fill:#ff5a31;}</style></defs><path class="a" d="M95.163,90a5.163,5.163,0,1,0,5.163,5.163A5.169,5.169,0,0,0,95.163,90Zm-.467.933h.933v.933H94.7Zm-2.83,4.7h-.933V94.7h.933Zm3.763,3.763H94.7V98.46h.933Zm.193-2.91-.66-.66-.66.66-.66-.66.66-.66-2.65-2.65.66-.66,2.65,2.65,2.661-2.661.66.66-2.661,2.661.66.66Zm2.637-.853V94.7h.933v.933Z" transform="translate(-87.201 -87.201)"/><path class="a" d="M7.962,0a7.962,7.962,0,1,0,7.962,7.962A7.962,7.962,0,0,0,7.962,0Zm0,14.059a6.1,6.1,0,1,1,6.1-6.1A6.1,6.1,0,0,1,7.962,14.059Z"/></svg>