<svg xmlns="http://www.w3.org/2000/svg" width="70" height="70" viewBox="0 0 70 70"><defs><style>.a{fill:#f5b224;}.b{fill:#fff;}</style></defs><g transform="translate(0 -0.35)"><g transform="translate(0 0.35)"><circle class="a" cx="35" cy="35" r="35"/><path class="b" d="M222.306,98.73h-7.852a.785.785,0,1,0,0,1.569h7.852a.785.785,0,1,0,0-1.569Z" transform="translate(-183.768 -84.922)"/><path class="b" d="M302.8,98.73h-.786a.785.785,0,1,0,0,1.569h.786a.785.785,0,0,0,0-1.569Z" transform="translate(-258.966 -84.922)"/><path class="b" d="M228.726,361.43h-1.95a2.169,2.169,0,0,0-2.166,2.166v.38a2.168,2.168,0,0,0,2.165,2.165h1.95a2.168,2.168,0,0,0,2.166-2.165v-.38A2.169,2.169,0,0,0,228.726,361.43Zm.6,2.546a.6.6,0,0,1-.6.6h-1.95a.6.6,0,0,1-.6-.6v-.38a.6.6,0,0,1,.6-.6h1.948a.6.6,0,0,1,.6.6Z" transform="translate(-193.139 -309.935)"/><path class="b" d="M177.317,82.31H156.3a2.842,2.842,0,0,0-2.838,2.838v41.434a2.842,2.842,0,0,0,2.838,2.838h21.02a2.842,2.842,0,0,0,2.838-2.838V85.148A2.842,2.842,0,0,0,177.317,82.31Zm1.268,44.272a1.27,1.27,0,0,1-1.268,1.267H156.3a1.27,1.27,0,0,1-1.268-1.267V85.148a1.27,1.27,0,0,1,1.268-1.267h21.02a1.268,1.268,0,0,1,1.267,1.267v41.434Z" transform="translate(-132.192 -70.858)"/><path class="b" d="M179.37,115.15H154.245a.785.785,0,0,0-.785.785v32.977a.785.785,0,0,0,.785.785H179.37a.785.785,0,0,0,.785-.785V115.935A.785.785,0,0,0,179.37,115.15Zm-.785,32.974H155.029v-31.4h23.556Z" transform="translate(-132.192 -98.986)"/></g></g></svg>