<svg xmlns="http://www.w3.org/2000/svg" width="70" height="70" viewBox="0 0 70 70"><defs><style>.a{fill:#003e83;}.b{fill:#fff;}</style></defs><g transform="translate(0.033 -0.323)"><g transform="translate(0 0.323)"><circle class="a" cx="35" cy="35" r="35" transform="translate(-0.033)"/><g transform="translate(11.744 11.274)"><path class="b" d="M105.731,82.3a23.431,23.431,0,1,0,23.431,23.431A23.431,23.431,0,0,0,105.731,82.3Zm0,45.351a21.92,21.92,0,1,1,21.92-21.92A21.92,21.92,0,0,1,105.731,127.651Z" transform="translate(-82.3 -82.3)"/><path class="b" d="M132.976,114.08a18.9,18.9,0,1,0,18.9,18.9,18.9,18.9,0,0,0-18.9-18.9Zm17.317,20.406h-9.909a7.668,7.668,0,0,0,.151-1.511,7.563,7.563,0,0,0-1.4-4.369l9.237-3.692a17.393,17.393,0,0,1,1.988,8.065,11.1,11.1,0,0,1-.069,1.511Zm-17.317,4.538a6.048,6.048,0,1,1,6.048-6.048,6.048,6.048,0,0,1-6.048,6.048Zm0-23.433a17.386,17.386,0,0,1,14.625,7.988l-9.538,3.82a7.507,7.507,0,0,0-10.174,0l-9.539-3.812a17.388,17.388,0,0,1,14.627-7.991Zm-15.4,9.323,9.237,3.7a7.563,7.563,0,0,0-1.4,4.369,7.665,7.665,0,0,0,.151,1.511H115.66a11.1,11.1,0,0,1-.068-1.511A17.392,17.392,0,0,1,117.579,124.914ZM115.867,136h10.189a7.554,7.554,0,0,0,2.962,3.4l-3.341,9.351A17.446,17.446,0,0,1,115.864,136Zm11.209,13.325,3.311-9.26a7.4,7.4,0,0,0,5.186,0l3.311,9.26A17.338,17.338,0,0,1,127.076,149.328Zm13.205-.571-3.341-9.351A7.555,7.555,0,0,0,139.9,136h10.189a17.447,17.447,0,0,1-9.811,12.752Z" transform="translate(-109.545 -109.545)"/><path class="b" d="M228.334,225.31a3.024,3.024,0,1,0,3.024,3.024A3.024,3.024,0,0,0,228.334,225.31Zm0,4.535a1.511,1.511,0,1,1,1.511-1.511A1.511,1.511,0,0,1,228.334,229.845Z" transform="translate(-204.903 -204.902)"/><path class="b" d="M310.06,214.72H314.6v1.511H310.06Z" transform="translate(-277.559 -195.824)"/><path class="b" d="M151.16,214.72h4.535v1.511H151.16Z" transform="translate(-141.334 -195.824)"/><path class="b" d="M310.06,235.91H314.6v1.511H310.06Z" transform="translate(-277.559 -213.99)"/><path class="b" d="M151.16,235.91h4.535v1.511H151.16Z" transform="translate(-141.334 -213.99)"/></g></g></g></svg>