<svg xmlns="http://www.w3.org/2000/svg" width="112.901" height="123.796" viewBox="0 0 112.901 123.796"><defs><style>.a{opacity:0.19;}.b{fill:#ff2923;}</style></defs><g class="a" transform="translate(-8.528 -15.733) rotate(20)"><g transform="translate(46 0)"><path class="b" d="M235.421,452h-8.246a1.981,1.981,0,0,0,0,3.963h8.246a1.981,1.981,0,1,0,0-3.963Z" transform="translate(-189.687 -362.438)"/><path class="b" d="M127.24,15.852H115.351v-4.3A5.944,5.944,0,0,0,113.37,0H61.852A5.944,5.944,0,0,0,59.87,11.548v4.3H47.981A1.982,1.982,0,0,0,46,17.833V31.7A15.87,15.87,0,0,0,61.852,47.555h1.675q.571,1,1.226,1.952A27.874,27.874,0,0,0,75.764,58.9a5.933,5.933,0,0,0,4.449,6.459c-2.381,7.933-6.612,16.28-11.624,16.28H63.833a1.982,1.982,0,0,0-1.966,1.736L59.886,99.224a1.981,1.981,0,0,0,1.966,2.227H113.37a1.981,1.981,0,0,0,1.966-2.227l-1.981-15.852a1.981,1.981,0,0,0-1.966-1.736h-4.756c-3.033,0-5.6-3.185-7.212-5.858a47.081,47.081,0,0,1-4.411-10.422A5.932,5.932,0,0,0,99.458,58.9,27.874,27.874,0,0,0,110.47,49.5q.656-.953,1.225-1.95h1.675A15.87,15.87,0,0,0,129.222,31.7V17.833a1.982,1.982,0,0,0-1.981-1.981ZM49.963,31.7V19.815H59.87V33.834a27.5,27.5,0,0,0,1.783,9.754A11.9,11.9,0,0,1,49.963,31.7Zm61.162,65.784H64.1L65.582,85.6h44.057Zm-12.3-15.852H76.4a24.243,24.243,0,0,0,2.783-3.792,52.582,52.582,0,0,0,5.1-12.307h6.646a52.589,52.589,0,0,0,5.1,12.292A24.261,24.261,0,0,0,98.821,81.636ZM93.555,61.574H81.666a1.981,1.981,0,0,1,0-3.963H93.555a1.981,1.981,0,1,1,0,3.963Zm4.151-6.231a5.924,5.924,0,0,0-4.151-1.695H81.666a5.924,5.924,0,0,0-4.151,1.695A23.706,23.706,0,0,1,63.833,33.834V11.889h14.86a1.981,1.981,0,1,0,0-3.963H61.852a1.981,1.981,0,0,1,0-3.963H113.37a1.981,1.981,0,1,1,0,3.963H96.527a1.981,1.981,0,0,0,0,3.963h14.862V33.834A23.706,23.706,0,0,1,97.706,55.343ZM125.259,31.7a11.9,11.9,0,0,1-11.69,11.884,27.5,27.5,0,0,0,1.783-9.754V19.815h9.907Z" transform="translate(-46 0)"/><path class="b" d="M211.9,102.423l-4.444-.787-2.207-4.06h0a3.955,3.955,0,0,0-6.964.031l-2.122,3.983-4.457.828a3.957,3.957,0,0,0-2.221,6.652l3.135,3.251-.575,4.385a3.961,3.961,0,0,0,2.6,4.46,3.937,3.937,0,0,0,3.026-.183l4.055-1.974L205.905,121a3.961,3.961,0,0,0,5.625-4.121l-.625-4.472,3.064-3.232a3.962,3.962,0,0,0-2.069-6.749Zm-.772,3.985-3.756,3.962a1.981,1.981,0,0,0-.524,1.637l.762,5.413-5.036-2.4a1.982,1.982,0,0,0-1.72.007l-4.911,2.394c.01-.047.018-.094.024-.142l.707-5.39a1.981,1.981,0,0,0-.538-1.633l-3.8-3.928.067-.011,5.423-1.008a1.982,1.982,0,0,0,1.387-1.016l2.56-4.818,2.659,4.891a1.981,1.981,0,0,0,1.4,1l5.389.951c-.029.028-.058.056-.086.086Z" transform="translate(-160.167 -76.585)"/><path class="b" d="M247.979,43.963a1.981,1.981,0,1,0,0-3.963h0a1.981,1.981,0,0,0,0,3.963Z" transform="translate(-206.368 -32.074)"/></g></g></svg>